<svg xmlns="http://www.w3.org/2000/svg" viewBox="0 0 100 100"><path d="M73.5,5.5c-11.6,0-21,9.4-21,21c0,11.6,9.4,21,21,21c11.6,0,21-9.4,21-21C94.5,14.9,85.1,5.5,73.5,5.5z M60.3,26.5c0-7.3,5.9-13.2,13.2-13.2c7.3,0,13.2,5.9,13.2,13.2c0,7.3-5.9,13.2-13.2,13.2C66.3,39.7,60.3,33.7,60.3,26.5z"/><path d="M25.8,94.5h48.4c11.2,0,20.3-9.1,20.3-20.3v-19c0-2.1-1.7-3.9-3.9-3.9c-2.1,0-3.9,1.7-3.9,3.9v19c0,6.9-5.6,12.6-12.6,12.6H25.8c-6.9,0-12.6-5.6-12.6-12.6V25.8c0-6.9,5.6-12.6,12.6-12.6h19c2.1,0,3.9-1.7,3.9-3.9S47,5.5,44.8,5.5h-19c-11.2,0-20.3,9.1-20.3,20.3v48.4C5.5,85.4,14.6,94.5,25.8,94.5z"/></svg>